<svg width="688" height="615" viewBox="0 0 516 461.25" xmlns="http://www.w3.org/2000/svg" xmlns:xlink="http://www.w3.org/1999/xlink">
<g id="graph0" class="graph" transform="translate(250.85724721129293,402.78061490814275) scale(0.7578582832551991)">
<title>Sectionary</title>
<polygon fill="white" stroke="transparent" points="-4,4 -4,-298 308,-298 308,4 -4,4"/>
<text text-anchor="middle" x="152" y="-277.4" font-family="Times,serif" font-size="14.00">Sectionary</text>
<g id="clust1" class="cluster">
<title>cluster</title>
<polygon fill="#ffaaff" stroke="black" points="132,-62 132,-261.2 296,-261.2 296,-62 132,-62"/>
<text text-anchor="middle" x="214" y="-244.6" font-family="Times,serif" font-size="14.00">subsection_processor()</text>
</g><g id="clust2" class="cluster">
<title>clusterSection</title>
<polygon fill="#1088ff" stroke="black" points="8,-86 8,-162.8 124,-162.8 124,-86 8,-86"/>
<text text-anchor="middle" x="66" y="-146.2" font-family="Times,serif" font-size="14.00">Sectionary</text>
</g>
<g id="clust3" class="cluster">
<title>cluster</title>
<polygon fill="#ffaaff" stroke="black" points="140,-70 140,-228.4 288,-228.4 288,-70 140,-70"/>
<text text-anchor="middle" x="214" y="-211.8" font-family="Times,serif" font-size="14.00">processor.reader()</text>
</g>
<g id="clust4" class="cluster">
<title>cluster</title>
<polygon fill="#ffaaff" stroke="black" points="148,-78 148,-195.6 280,-195.6 280,-78 148,-78"/>
<text text-anchor="middle" x="214" y="-179" font-family="Times,serif" font-size="14.00">gen()</text>
</g>
<g id="clust5" class="cluster">
<title>cluster</title>
<polygon fill="#ffaaff" stroke="black" points="156,-86 156,-162.8 272,-162.8 272,-86 156,-86"/>
<text text-anchor="middle" x="214" y="-146.2" font-family="Times,serif" font-size="14.00">BufferedIterator()</text>
</g>
<!-- Source -->
<g id="node1" class="node">
<title>Reset?</title>
<polygon fill="#00ff00" stroke="black" points="66,-54 23.62,-27 66,0 108.38,-27 66,-54"/>
<text text-anchor="middle" x="66" y="-22.8" font-family="Times,serif" font-size="14.00">Reset?</text>
</g>
<!-- Section.Source -->
<g id="node2" class="node">
<title>Section.Source</title>
<path fill="red" stroke="black" d="M116.37,-126.73C116.37,-128.53 93.79,-130 66,-130 38.21,-130 15.63,-128.53 15.63,-126.73 15.63,-126.73 15.63,-97.27 15.63,-97.27 15.63,-95.47 38.21,-94 66,-94 93.79,-94 116.37,-95.47 116.37,-97.27 116.37,-97.27 116.37,-126.73 116.37,-126.73"/>
<path fill="none" stroke="black" d="M116.37,-126.73C116.37,-124.92 93.79,-123.45 66,-123.45 38.21,-123.45 15.63,-124.92 15.63,-126.73"/>
<text text-anchor="middle" x="66" y="-107.8" font-family="Times,serif" font-size="14.00">Section.Source</text>
</g>
<!-- Source -->
<!-- Source -->
<g id="node3" class="node">
<title>Source</title>
<path fill="red" stroke="black" d="M241.38,-126.73C241.38,-128.53 229.11,-130 214,-130 198.89,-130 186.62,-128.53 186.62,-126.73 186.62,-126.73 186.62,-97.27 186.62,-97.27 186.62,-95.47 198.89,-94 214,-94 229.11,-94 241.38,-95.47 241.38,-97.27 241.38,-97.27 241.38,-126.73 241.38,-126.73"/>
<path fill="none" stroke="black" d="M241.38,-126.73C241.38,-124.92 229.11,-123.45 214,-123.45 198.89,-123.45 186.62,-124.92 186.62,-126.73"/>
<text text-anchor="middle" x="214" y="-107.8" font-family="Times,serif" font-size="14.00">Source</text>
</g>
<g id="edge1" class="edge">
<title>Section.Source-&gt;Reset?</title>
<path fill="none" stroke="#1f78b4" d="M66,-93.8C66,-85.18 66,-74.41 66,-64.08"/>
<polygon fill="#a6cee3" stroke="#1f78b4" points="69.5,-64.01 66,-54.01 62.5,-64.01 69.5,-64.01"/>
</g>

</g>
</svg>